inDegrees=no
num_controls=7
num_derivatives=13
num_iterations=37
num_multipliers=7
num_parameters=0
num_slacks=7
num_states=26
objective=0.470744
objective_accelerations=0.059374
objective_balance=0.000620
objective_effort=0.016141
objective_height=0.385633
objective_ligament=0.008976
solver_duration=536.101323
status=Solve_Succeeded
success=true
DataType=double
version=3
OpenSimVersion=4.5
endheader
time	/jointset/ground_pelvis/pelvis_tilt/value	/jointset/ground_pelvis/pelvis_tx/value	/jointset/ground_pelvis/pelvis_ty/value	/jointset/hip_l/hip_flexion_l/value	/jointset/hip_l/hip_adduction_l/value	/jointset/hip_l/hip_rotation_l/value	/jointset/back/lumbar_extension/value	/jointset/patellofemoral_l/patellar_flexion_l/value	/jointset/knee_l/knee_flexion_l/value	/jointset/knee_l/knee_adduction_l/value	/jointset/knee_l/knee_rotation_l/value	/jointset/ankle_l/ankle_angle_l/value	/jointset/subtalar_l/subtalar_angle_l/value	/jointset/ground_pelvis/pelvis_tilt/speed	/jointset/ground_pelvis/pelvis_tx/speed	/jointset/ground_pelvis/pelvis_ty/speed	/jointset/hip_l/hip_flexion_l/speed	/jointset/hip_l/hip_adduction_l/speed	/jointset/hip_l/hip_rotation_l/speed	/jointset/back/lumbar_extension/speed	/jointset/patellofemoral_l/patellar_flexion_l/speed	/jointset/knee_l/knee_flexion_l/speed	/jointset/knee_l/knee_adduction_l/speed	/jointset/knee_l/knee_rotation_l/speed	/jointset/ankle_l/ankle_angle_l/speed	/jointset/subtalar_l/subtalar_angle_l/speed	/forceset/tau_hip_flexion_l	/forceset/tau_hip_adduction_l	/forceset/tau_hip_rotation_l	/forceset/tau_knee_flexion_l	/forceset/tau_ankle_angle_l	/forceset/tau_subtalar_angle_l	/forceset/tau_lumbar_extension	lambda_cid13_p0	lambda_cid13_p1	lambda_cid13_p2	lambda_cid13_p3	lambda_cid13_p4	lambda_cid13_p5	lambda_cid14_p0	/jointset/ground_pelvis/pelvis_tilt/accel	/jointset/ground_pelvis/pelvis_tx/accel	/jointset/ground_pelvis/pelvis_ty/accel	/jointset/hip_l/hip_flexion_l/accel	/jointset/hip_l/hip_adduction_l/accel	/jointset/hip_l/hip_rotation_l/accel	/jointset/back/lumbar_extension/accel	/jointset/patellofemoral_l/patellar_flexion_l/accel	/jointset/knee_l/knee_flexion_l/accel	/jointset/knee_l/knee_adduction_l/accel	/jointset/knee_l/knee_rotation_l/accel	/jointset/ankle_l/ankle_angle_l/accel	/jointset/subtalar_l/subtalar_angle_l/accel	gamma_cid13_p0	gamma_cid13_p1	gamma_cid13_p2	gamma_cid13_p3	gamma_cid13_p4	gamma_cid13_p5	gamma_cid14_p0
0	0.05579148771021775	0.1040618317418584	0.905168047638939	0.1266922784136757	-0.3500511443678935	-0.2363155839752802	-0.2144969558742783	0.2051545070141941	0.2051545070141877	-0.1333753837408723	-0.1615631162595129	0.09024313228550125	0.1008985993189345	0	0	0	0	0	0	0	0	0	0	0	0	0	0.1118931351598813	-0.01877417496084883	-0.007875545828131299	-0.2410742151067875	0.1863273377490028	-0.09733823471718554	-0.04521494213049109	27.68724771281229	39.49013560879326	-8.934375841946332	-17.22078181028976	-440.790453233783	-28.93301919028091	-25.99057695122891	-3.011192373828679	-1.033997889019795	-0.7884859120076397	10.62889703990672	0.06428745646935298	2.529715924810787	-3.541373016045998	9.976227409006313	9.976227409007029	2.738785659393546	-0.935416109541597	3.3328025883471	1.10154107909153	4.860866162694099e-08	6.189141477703257e-07	-8.128698535867703e-07	6.05654300205742e-08	1.510633765228628e-07	9.251478338912587e-07	1.440108973522425e-07
0.01	0.05564679873284209	0.1040116002982091	0.905129347538448	0.1272086577495493	-0.3500511728602882	-0.2361791931360698	-0.2146771174606553	0.205641974963133	0.2056419749632125	-0.1332487653161863	-0.1615979803377907	0.09040643778388119	0.1009489526817674	-0.02895894962442209	-0.009924076621519062	-0.007766048144610513	0.1028211727552092	-0.0004586264053803472	0.02772567983529696	-0.035707066673251	0.09706241557750971	0.09706241557750515	0.02424882074454443	-0.006597792365084536	0.03251168381208772	0.009524733694443923	0.1117885273353356	-0.02835154927785595	-0.007832890739558148	-0.2429446801901225	0.1874701371409905	-0.08965075596110023	-0.04478692335856803	28.58219813530338	36.02537754298326	-8.416965743606882	-18.60779959892457	-440.6632555601849	-36.26868868204276	-25.99080374713654	-2.841412409787195	-0.9532686211320598	-0.7745382598979367	10.04053117900096	-0.1688222147337651	2.961260971927834	-3.536585901409125	9.506543697292855	9.506543697291855	2.106705981648688	-0.465853074749109	3.187950630937455	0.7960483839923449	-1.603833892670204e-09	6.315108783485811e-07	-3.373225441999866e-07	7.228951184124416e-08	-7.911281312280152e-08	4.621792784903727e-07	1.018040754033301e-07
0.02	0.05521188702855757	0.10386579687386	0.9050122121576628	0.1287396095700222	-0.3500693645219444	-0.235752092106757	-0.215204592195493	0.207087126080984	0.2070871260810113	-0.1329119035446078	-0.1616876007945043	0.09089037999096032	0.1010781751554211	-0.05804454537026457	-0.01911439613997269	-0.01568705605889967	0.2029144969372727	-0.003632633838575786	0.05814203803216286	-0.0694626296842161	0.1915366337617826	0.1915366337617732	0.04204866947569506	-0.0109512757204584	0.06412734175606755	0.0157738221637645	0.1116839195103451	-0.03792892359406066	-0.007790235652426041	-0.2448151452733759	0.1886129365332105	-0.08196327720405039	-0.04435890458728254	29.5221254120393	32.56783269692509	-7.917941413575846	-20.03701297384134	-439.7159348548381	-43.40659323985937	-25.99118500924708	-3.036521598112073	-0.8872464684073338	-0.8194778659433511	10.08332732527778	-0.4787887490937068	3.067851597124586	-3.151072283588547	9.458587930359101	9.458587930359753	1.448991256714762	-0.4865543075995648	3.153597414724819	0.4464120340665989	-5.18163294122814e-08	6.441076089268367e-07	1.382247651867971e-07	8.401359366191413e-08	-3.092890027684658e-07	-7.892769105132127e-10	5.959725345441774e-08
0.03	0.05448810569105942	0.1036306216513265	0.9048155806808521	0.1312573478883303	-0.35012666843755	-0.2350164601770712	-0.2160617274673571	0.2094642795265828	0.2094642795265635	-0.1324163480046637	-0.1618152643649098	0.09168599292951046	0.1012604096378776	-0.08643532969959349	-0.02791144401917194	-0.02360936547720594	0.3000822116970227	-0.007639563944892199	0.08866447340229809	-0.1018637369436523	0.2834508616824681	0.2834508616824705	0.05730813982009549	-0.01462425998604944	0.09484689681385378	0.02083853119878131	0.1074694626565453	-0.03275778115911183	-0.00707133446638905	-0.2391456547122209	0.1810327842163215	-0.08317825146063096	-0.04125599385958331	26.99131035777181	33.31064270500278	-7.775956565681689	-18.23359352694514	-439.8835983413889	-41.01436288085038	-25.99126266542688	-2.698898032002568	-0.8745364470243919	-0.774189193644225	9.450844723363661	-0.3334796353095322	2.996458314609849	-3.269526784679337	8.991349426250842	8.991349426252595	1.601407525796628	-0.3140854935698325	3.00889971094173	0.5612008201834161	-4.447487964427767e-08	8.179344838030176e-07	-7.620474530115297e-08	1.118908550470211e-07	-4.039700681685498e-07	2.252894903608239e-07	1.056738893983606e-07
0.04	0.05348870827390489	0.1033077554501307	0.9045406097670851	0.1347302335885555	-0.3502184085529944	-0.23398520013208	-0.217239853179337	0.2127472770918467	0.2127472770918713	-0.1317608012404579	-0.1619809407798516	0.09278435445061105	0.1014982313070794	-0.1131677612950899	-0.03665259187243601	-0.03135494345022263	0.3939439733384826	-0.01051987380750156	0.1172676610784912	-0.1336607177053541	0.3727054577362579	0.372705457736271	0.07404691426416889	-0.0185538445528508	0.1246770582570713	0.02689125951232595	0.1032550058015941	-0.02758663872450608	-0.006352433278186267	-0.2334761641521252	0.1734526318990159	-0.08439322571774463	-0.03815308313242635	24.50198729446004	34.06217752988386	-7.653627448490927	-16.47475273049086	-439.3001289740111	-38.4409074663408	-25.99025169256331	-2.704851051345035	-0.8760664632208606	-0.7841315768854242	9.42213670161995	-0.2534647003523474	2.684002058336215	-3.030246984041491	8.926661556980125	8.926661556980534	1.744852076649321	-0.5378743678417207	2.975718691810456	0.6440158897719208	-3.59467505919932e-08	9.950856915513207e-07	-3.048605819720875e-07	1.401011716808793e-07	-4.958574196666631e-07	4.655754189243719e-07	1.535708028246304e-07
0.05	0.05222755375181665	0.1028982683712097	0.9041883672186536	0.1391279339879163	-0.350336471950547	-0.2326756121280713	-0.2187292859836156	0.2169111187515862	0.2169111187516497	-0.1309367221921637	-0.1621872710022387	0.09417696953335665	0.1017982024520301	-0.1389972675321615	-0.04518202635926582	-0.03912427368034536	0.485209944423743	-0.01321517810164224	0.1446185388865561	-0.1638247626205437	0.4597034626557776	0.4597034626558049	0.0903717558441873	-0.0226455983558427	0.153716160444211	0.03293225766176571	0.0994226492147368	-0.02600111012298919	-0.005670647340275352	-0.2297954087748927	0.1682673468762881	-0.083200007341521	-0.03520979217231288	22.96545124040777	33.68783685665484	-7.450981775275748	-15.75112122058359	-438.4736784033767	-38.28942539436607	-25.98736504458042	-2.512107712216874	-0.8319340617808142	-0.7780397767143705	8.920905425122747	-0.2960087122423045	2.756000283263745	-2.949321165112574	8.532427125227562	8.53242712522945	1.516861570916549	-0.3349098714562762	2.848561819325569	0.5584160665342102	-5.209467147348055e-08	9.14562243207773e-07	-1.789971178205084e-07	1.384159307653718e-07	-5.9026558240162e-07	3.232633985040251e-07	1.337413136483733e-07
0.06	0.05071008270687134	0.1024053765233455	0.9037574901617955	0.1444267097206816	-0.3504851774747306	-0.2310934414177081	-0.2205083268210271	0.2219341518936881	0.2219341518937089	-0.1299612824535636	-0.1624325355596649	0.09585608680541018	0.102153438436278	-0.1644310658623331	-0.05333354566107161	-0.04708184513554853	0.5741590400347446	-0.01664829912769806	0.1717842023435245	-0.1915823243298692	0.544543754206907	0.5445437542069468	0.1043190523136939	-0.02634071155596363	0.1819774961177487	0.03794422737134853	0.09559029262712671	-0.02441558152146403	-0.004988861402313795	-0.2261146533980026	0.1630820618534685	-0.08200678896531753	-0.03226650121274514	21.46644103331753	33.32022952282133	-7.264606016610062	-15.066703478222	-436.9716411372812	-37.97327486225507	-25.9816436726772	-2.625709469964637	-0.800483426216571	-0.8217798219015036	8.958761606768288	-0.4010280467354474	2.646959188117015	-2.54895034286857	8.495118883302231	8.49511888330232	1.269343054546864	-0.4585462472675864	2.820165389089474	0.4382102018002809	-6.928158393112672e-08	8.231893356603579e-07	-3.820652521324453e-08	1.354719295319962e-07	-6.847798845570754e-07	1.648419907580405e-07	1.110601864677992e-07
